<svg xmlns="http://www.w3.org/2000/svg" width="5400" height="320">
  <rect width="100%" height="100%" fill="white"/>
  <text x="2700.0" y="26" text-anchor="middle" font-size="20">sndlib-germany50-subset-30</text>
  <line x1="3857.1" y1="90.0" x2="1542.9" y2="126.0" stroke="#1f2933" stroke-width="1.5"/><line x1="2314.3" y1="162.0" x2="1542.9" y2="126.0" stroke="#1f2933" stroke-width="1.5"/><line x1="3085.7" y1="90.0" x2="1542.9" y2="126.0" stroke="#1f2933" stroke-width="1.5"/><line x1="1542.9" y1="90.0" x2="3857.1" y2="90.0" stroke="#1f2933" stroke-width="1.5"/><line x1="771.4" y1="90.0" x2="1542.9" y2="90.0" stroke="#1f2933" stroke-width="1.5"/><line x1="4628.6" y1="90.0" x2="1542.9" y2="90.0" stroke="#1f2933" stroke-width="1.5"/><line x1="1542.9" y1="234.0" x2="2314.3" y2="162.0" stroke="#1f2933" stroke-width="1.5"/><line x1="771.4" y1="162.0" x2="2314.3" y2="162.0" stroke="#1f2933" stroke-width="1.5"/><line x1="771.4" y1="234.0" x2="2314.3" y2="162.0" stroke="#1f2933" stroke-width="1.5"/><line x1="3085.7" y1="90.0" x2="771.4" y2="90.0" stroke="#1f2933" stroke-width="1.5"/><line x1="2314.3" y1="90.0" x2="771.4" y2="90.0" stroke="#1f2933" stroke-width="1.5"/><line x1="2314.3" y1="198.0" x2="1542.9" y2="234.0" stroke="#1f2933" stroke-width="1.5"/><line x1="3857.1" y1="162.0" x2="1542.9" y2="234.0" stroke="#1f2933" stroke-width="1.5"/><line x1="771.4" y1="162.0" x2="4628.6" y2="90.0" stroke="#1f2933" stroke-width="1.5"/><line x1="3857.1" y1="126.0" x2="4628.6" y2="90.0" stroke="#1f2933" stroke-width="1.5"/><line x1="4628.6" y1="126.0" x2="4628.6" y2="90.0" stroke="#1f2933" stroke-width="1.5"/><line x1="2314.3" y1="90.0" x2="4628.6" y2="90.0" stroke="#1f2933" stroke-width="1.5"/><line x1="2314.3" y1="198.0" x2="771.4" y2="162.0" stroke="#1f2933" stroke-width="1.5"/><line x1="1542.9" y1="198.0" x2="771.4" y2="162.0" stroke="#1f2933" stroke-width="1.5"/><line x1="3085.7" y1="126.0" x2="3085.7" y2="90.0" stroke="#1f2933" stroke-width="1.5"/><line x1="2314.3" y1="126.0" x2="3085.7" y2="90.0" stroke="#1f2933" stroke-width="1.5"/><line x1="3085.7" y1="126.0" x2="3085.7" y2="162.0" stroke="#1f2933" stroke-width="1.5"/><line x1="2314.3" y1="234.0" x2="3085.7" y2="162.0" stroke="#1f2933" stroke-width="1.5"/><line x1="3085.7" y1="234.0" x2="3085.7" y2="162.0" stroke="#1f2933" stroke-width="1.5"/><line x1="2314.3" y1="126.0" x2="3085.7" y2="126.0" stroke="#1f2933" stroke-width="1.5"/><line x1="3857.1" y1="162.0" x2="3085.7" y2="126.0" stroke="#1f2933" stroke-width="1.5"/><line x1="2314.3" y1="198.0" x2="3085.7" y2="234.0" stroke="#1f2933" stroke-width="1.5"/><line x1="4628.6" y1="234.0" x2="3085.7" y2="234.0" stroke="#1f2933" stroke-width="1.5"/><line x1="3857.1" y1="162.0" x2="3085.7" y2="234.0" stroke="#1f2933" stroke-width="1.5"/><line x1="4628.6" y1="234.0" x2="2314.3" y2="198.0" stroke="#1f2933" stroke-width="1.5"/><line x1="771.4" y1="234.0" x2="4628.6" y2="234.0" stroke="#1f2933" stroke-width="1.5"/><line x1="1542.9" y1="198.0" x2="771.4" y2="234.0" stroke="#1f2933" stroke-width="1.5"/><line x1="771.4" y1="198.0" x2="771.4" y2="234.0" stroke="#1f2933" stroke-width="1.5"/><line x1="4628.6" y1="162.0" x2="3857.1" y2="126.0" stroke="#1f2933" stroke-width="1.5"/><line x1="1542.9" y1="198.0" x2="3857.1" y2="126.0" stroke="#1f2933" stroke-width="1.5"/><line x1="771.4" y1="198.0" x2="3857.1" y2="126.0" stroke="#1f2933" stroke-width="1.5"/><line x1="3857.1" y1="198.0" x2="4628.6" y2="162.0" stroke="#1f2933" stroke-width="1.5"/><line x1="4628.6" y1="126.0" x2="4628.6" y2="162.0" stroke="#1f2933" stroke-width="1.5"/><line x1="1542.9" y1="162.0" x2="3857.1" y2="198.0" stroke="#1f2933" stroke-width="1.5"/><line x1="771.4" y1="126.0" x2="4628.6" y2="126.0" stroke="#1f2933" stroke-width="1.5"/><line x1="1542.9" y1="162.0" x2="4628.6" y2="126.0" stroke="#1f2933" stroke-width="1.5"/><line x1="771.4" y1="198.0" x2="1542.9" y2="198.0" stroke="#1f2933" stroke-width="1.5"/><line x1="771.4" y1="126.0" x2="2314.3" y2="90.0" stroke="#1f2933" stroke-width="1.5"/><line x1="3857.1" y1="234.0" x2="771.4" y2="198.0" stroke="#1f2933" stroke-width="1.5"/><line x1="1542.9" y1="162.0" x2="771.4" y2="126.0" stroke="#1f2933" stroke-width="1.5"/><line x1="1542.9" y1="162.0" x2="4628.6" y2="198.0" stroke="#1f2933" stroke-width="1.5"/><line x1="3857.1" y1="234.0" x2="4628.6" y2="198.0" stroke="#1f2933" stroke-width="1.5"/><line x1="3085.7" y1="198.0" x2="1542.9" y2="162.0" stroke="#1f2933" stroke-width="1.5"/>
  <circle cx="771.4" cy="90.0" r="24" fill="#dfe9f3" stroke="#1f2933" stroke-width="2"/><circle cx="1542.9" cy="90.0" r="24" fill="#dfe9f3" stroke="#1f2933" stroke-width="2"/><circle cx="2314.3" cy="90.0" r="24" fill="#dfe9f3" stroke="#1f2933" stroke-width="2"/><circle cx="3085.7" cy="90.0" r="24" fill="#dfe9f3" stroke="#1f2933" stroke-width="2"/><circle cx="3857.1" cy="90.0" r="24" fill="#dfe9f3" stroke="#1f2933" stroke-width="2"/><circle cx="4628.6" cy="90.0" r="24" fill="#dfe9f3" stroke="#1f2933" stroke-width="2"/><circle cx="771.4" cy="126.0" r="24" fill="#dfe9f3" stroke="#1f2933" stroke-width="2"/><circle cx="1542.9" cy="126.0" r="24" fill="#dfe9f3" stroke="#1f2933" stroke-width="2"/><circle cx="2314.3" cy="126.0" r="24" fill="#dfe9f3" stroke="#1f2933" stroke-width="2"/><circle cx="3085.7" cy="126.0" r="24" fill="#dfe9f3" stroke="#1f2933" stroke-width="2"/><circle cx="3857.1" cy="126.0" r="24" fill="#dfe9f3" stroke="#1f2933" stroke-width="2"/><circle cx="4628.6" cy="126.0" r="24" fill="#dfe9f3" stroke="#1f2933" stroke-width="2"/><circle cx="771.4" cy="162.0" r="24" fill="#dfe9f3" stroke="#1f2933" stroke-width="2"/><circle cx="1542.9" cy="162.0" r="24" fill="#dfe9f3" stroke="#1f2933" stroke-width="2"/><circle cx="2314.3" cy="162.0" r="24" fill="#dfe9f3" stroke="#1f2933" stroke-width="2"/><circle cx="3085.7" cy="162.0" r="24" fill="#dfe9f3" stroke="#1f2933" stroke-width="2"/><circle cx="3857.1" cy="162.0" r="24" fill="#dfe9f3" stroke="#1f2933" stroke-width="2"/><circle cx="4628.6" cy="162.0" r="24" fill="#dfe9f3" stroke="#1f2933" stroke-width="2"/><circle cx="771.4" cy="198.0" r="24" fill="#dfe9f3" stroke="#1f2933" stroke-width="2"/><circle cx="1542.9" cy="198.0" r="24" fill="#dfe9f3" stroke="#1f2933" stroke-width="2"/><circle cx="2314.3" cy="198.0" r="24" fill="#dfe9f3" stroke="#1f2933" stroke-width="2"/><circle cx="3085.7" cy="198.0" r="24" fill="#dfe9f3" stroke="#1f2933" stroke-width="2"/><circle cx="3857.1" cy="198.0" r="24" fill="#f8f4d7" stroke="#1f2933" stroke-width="2"/><circle cx="4628.6" cy="198.0" r="24" fill="#dfe9f3" stroke="#1f2933" stroke-width="2"/><circle cx="771.4" cy="234.0" r="24" fill="#dfe9f3" stroke="#1f2933" stroke-width="2"/><circle cx="1542.9" cy="234.0" r="24" fill="#dfe9f3" stroke="#1f2933" stroke-width="2"/><circle cx="2314.3" cy="234.0" r="24" fill="#f8f4d7" stroke="#1f2933" stroke-width="2"/><circle cx="3085.7" cy="234.0" r="24" fill="#dfe9f3" stroke="#1f2933" stroke-width="2"/><circle cx="3857.1" cy="234.0" r="24" fill="#dfe9f3" stroke="#1f2933" stroke-width="2"/><circle cx="4628.6" cy="234.0" r="24" fill="#dfe9f3" stroke="#1f2933" stroke-width="2"/>
  <text x="771.4" y="94.0" text-anchor="middle" font-size="11">aachen</text><text x="1542.9" y="94.0" text-anchor="middle" font-size="11">koeln</text><text x="2314.3" y="94.0" text-anchor="middle" font-size="11">trier</text><text x="3085.7" y="94.0" text-anchor="middle" font-size="11">wesel</text><text x="3857.1" y="94.0" text-anchor="middle" font-size="11">duesseldorf</text><text x="4628.6" y="94.0" text-anchor="middle" font-size="11">koblenz</text><text x="771.4" y="130.0" text-anchor="middle" font-size="11">saarbruecken</text><text x="1542.9" y="130.0" text-anchor="middle" font-size="11">essen</text><text x="2314.3" y="130.0" text-anchor="middle" font-size="11">norden</text><text x="3085.7" y="130.0" text-anchor="middle" font-size="11">oldenburg</text><text x="3857.1" y="130.0" text-anchor="middle" font-size="11">frankfurt</text><text x="4628.6" y="130.0" text-anchor="middle" font-size="11">kaiserslautern</text><text x="771.4" y="166.0" text-anchor="middle" font-size="11">siegen</text><text x="1542.9" y="166.0" text-anchor="middle" font-size="11">karlsruhe</text><text x="2314.3" y="166.0" text-anchor="middle" font-size="11">dortmund</text><text x="3085.7" y="166.0" text-anchor="middle" font-size="11">bremen</text><text x="3857.1" y="166.0" text-anchor="middle" font-size="11">osnabrueck</text><text x="4628.6" y="166.0" text-anchor="middle" font-size="11">darmstadt</text><text x="771.4" y="202.0" text-anchor="middle" font-size="11">fulda</text><text x="1542.9" y="202.0" text-anchor="middle" font-size="11">giessen</text><text x="2314.3" y="202.0" text-anchor="middle" font-size="11">bielefeld</text><text x="3085.7" y="202.0" text-anchor="middle" font-size="11">freiburg</text><text x="3857.1" y="202.0" text-anchor="middle" font-size="11">mannheim</text><text x="4628.6" y="202.0" text-anchor="middle" font-size="11">stuttgart</text><text x="771.4" y="238.0" text-anchor="middle" font-size="11">kassel</text><text x="1542.9" y="238.0" text-anchor="middle" font-size="11">muenster</text><text x="2314.3" y="238.0" text-anchor="middle" font-size="11">bremerhaven</text><text x="3085.7" y="238.0" text-anchor="middle" font-size="11">hannover</text><text x="3857.1" y="238.0" text-anchor="middle" font-size="11">wuerzburg</text><text x="4628.6" y="238.0" text-anchor="middle" font-size="11">braunschweig</text>
</svg>
