<svg xmlns="http://www.w3.org/2000/svg" width="1080" height="320">
  <rect width="100%" height="100%" fill="white"/>
  <text x="540.0" y="26" text-anchor="middle" font-size="20">ai-scenario-a064e470b6</text>
  <line x1="270.0" y1="90.0" x2="540.0" y2="90.0" stroke="#1f2933" stroke-width="1.5"/><line x1="540.0" y1="90.0" x2="270.0" y2="180.0" stroke="#1f2933" stroke-width="1.5"/><line x1="270.0" y1="90.0" x2="810.0" y2="90.0" stroke="#1f2933" stroke-width="1.5"/><line x1="810.0" y1="90.0" x2="270.0" y2="180.0" stroke="#1f2933" stroke-width="1.5"/><line x1="270.0" y1="180.0" x2="540.0" y2="180.0" stroke="#1f2933" stroke-width="1.5"/><line x1="540.0" y1="180.0" x2="810.0" y2="180.0" stroke="#1f2933" stroke-width="1.5"/>
  <circle cx="270.0" cy="90.0" r="24" fill="#f8f4d7" stroke="#1f2933" stroke-width="2"/><circle cx="540.0" cy="90.0" r="24" fill="#dfe9f3" stroke="#1f2933" stroke-width="2"/><circle cx="810.0" cy="90.0" r="24" fill="#dfe9f3" stroke="#1f2933" stroke-width="2"/><circle cx="270.0" cy="180.0" r="24" fill="#dfe9f3" stroke="#1f2933" stroke-width="2"/><circle cx="540.0" cy="180.0" r="24" fill="#dfe9f3" stroke="#1f2933" stroke-width="2"/><circle cx="810.0" cy="180.0" r="24" fill="#f8f4d7" stroke="#1f2933" stroke-width="2"/>
  <text x="270.0" y="94.0" text-anchor="middle" font-size="11">node-1</text><text x="540.0" y="94.0" text-anchor="middle" font-size="11">node-2</text><text x="810.0" y="94.0" text-anchor="middle" font-size="11">node-3</text><text x="270.0" y="184.0" text-anchor="middle" font-size="11">node-4</text><text x="540.0" y="184.0" text-anchor="middle" font-size="11">node-5</text><text x="810.0" y="184.0" text-anchor="middle" font-size="11">node-6</text>
</svg>
